<svg width="84" height="84" viewBox="0 0 84 84" fill="none" xmlns="http://www.w3.org/2000/svg">
<g clip-path="url(#clip0_4_2497)">
<path d="M78.2135 33.099C76.5281 31.942 74.4813 30.8757 72.1419 29.9289L72.8228 29.6988C74.1105 29.2635 74.8013 27.8668 74.3659 26.5793C73.9307 25.2914 72.533 24.6012 71.2464 25.0361L63.4755 27.6634C62.7416 27.9116 62.1674 28.4906 61.9257 29.2264C61.6837 29.9622 61.8027 30.7691 62.2463 31.404L66.9446 38.1285C67.4231 38.8136 68.1873 39.1801 68.964 39.1801C69.4508 39.1801 69.9423 39.0362 70.3713 38.7363C71.4855 37.958 71.7577 36.4237 70.9792 35.3095L70.4481 34.5493C72.3831 35.3414 74.0604 36.2175 75.4279 37.1562C77.7819 38.7722 79.0781 40.5011 79.0781 42.0246C79.0781 44.6265 75.2619 47.6277 69.1189 49.8568C65.9351 51.0121 62.2778 51.9381 58.3001 52.6119C58.6358 49.1904 58.809 45.6294 58.809 41.9995C58.809 31.1592 57.2642 20.9319 54.4589 13.2018C53.0396 9.29037 51.3552 6.18286 49.4525 3.96523C47.9005 2.1566 45.3475 0 42 0C38.6525 0 36.0995 2.1566 34.5473 3.96572C32.6447 6.18335 30.9604 9.29086 29.5411 13.2023C28.1461 17.0464 27.0628 21.5081 26.3261 26.3557C21.4899 27.0921 17.0384 28.174 13.2021 29.566C9.2907 30.9853 6.18319 32.6698 3.96555 34.5724C2.1566 36.1246 0 38.6774 0 42.0249C0 45.3725 2.1566 47.9254 3.96572 49.4776C6.18335 51.3803 9.29086 53.0645 13.2023 54.484C20.9324 57.2893 31.1597 58.8341 42 58.8341C45.6192 58.8341 49.1702 58.6619 52.5827 58.3282C51.9094 62.295 50.985 65.9428 49.8325 69.119C47.6031 75.2619 44.6019 79.0781 42 79.0781C40.5041 79.0781 38.786 77.7264 37.1626 75.2719C36.2516 73.8946 35.3973 72.2187 34.6195 70.2941L35.1433 70.6803C36.237 71.4863 37.778 71.2537 38.5845 70.1595C39.3909 69.0656 39.1578 67.5248 38.0638 66.7183L31.461 61.8509C30.8372 61.3914 30.0336 61.2521 29.2922 61.475C28.5505 61.698 27.9567 62.2575 27.6901 62.9846L24.8661 70.6862C24.3982 71.9622 25.0535 73.3761 26.3294 73.8439C26.609 73.9464 26.8949 73.995 27.1765 73.995C28.1794 73.995 29.1216 73.3771 29.4871 72.3806L29.8029 71.5194C32.8949 79.5383 37.182 84 42 84C45.3475 84 47.9005 81.8434 49.4527 80.0343C51.3553 77.8167 53.0396 74.7091 54.4591 70.7977C55.8492 66.9672 56.9297 62.5232 57.6662 57.6955C62.5052 56.9589 66.9595 55.8769 70.7979 54.4838C74.7093 53.0645 77.8168 51.3801 80.0344 49.4775C81.8434 47.9254 84 45.3726 84 42.0249C84 39.7651 82.9961 36.3822 78.2135 33.099ZM42 53.9121C31.7177 53.9121 22.0868 52.4721 14.8811 49.8571C8.73813 47.6282 4.92188 44.627 4.92188 42.0249C4.92188 39.4229 8.73813 36.4219 14.8811 34.1928C18.0636 33.0378 21.7192 32.1121 25.6951 31.4385C25.3627 34.8444 25.1911 38.3882 25.1911 42C25.1911 43.8846 25.2386 45.7785 25.3322 47.6295C25.4008 48.9869 26.5552 50.0374 27.9142 49.9629C29.2715 49.8944 30.3165 48.7382 30.2477 47.3809C30.1583 45.6127 30.113 43.8022 30.113 42.0002C30.113 38.1229 30.3178 34.3381 30.7132 30.7412C34.3184 30.3439 38.1127 30.138 42 30.138C43.2754 30.138 44.5607 30.1608 45.82 30.2055C47.1788 30.2533 48.3185 29.1923 48.3669 27.8339C48.4153 26.4758 47.3535 25.3354 45.9952 25.287C44.6778 25.24 43.3335 25.2161 41.9998 25.2161C38.3777 25.2161 34.8237 25.3887 31.4088 25.723C32.0829 21.7365 33.01 18.0712 34.1677 14.8813C36.3971 8.73813 39.3981 4.92188 42 4.92188C44.6019 4.92188 47.6031 8.73813 49.8323 14.8811C52.4472 22.0868 53.8871 31.7177 53.8871 42C53.8871 45.8955 53.6804 49.6975 53.2814 53.3095C49.6778 53.7065 45.8853 53.9121 42 53.9121Z" fill="white"/>
</g>
<defs>
<clipPath id="clip0_4_2497">
<rect width="84" height="84" fill="white"/>
</clipPath>
</defs>
</svg>
