<svg width="19" height="15" viewBox="0 0 19 15" fill="none" xmlns="http://www.w3.org/2000/svg">
<path d="M1.24972 6.7501H16.2117L10.4825 1.29317C10.1825 1.00742 10.1709 0.532676 10.4566 0.23268C10.742 -0.0669413 11.2167 -0.0789412 11.5171 0.206805L18.06 6.43923C18.3431 6.72273 18.4995 7.09922 18.4995 7.50009C18.4995 7.90059 18.3431 8.27746 18.0469 8.57333L11.5167 14.793C11.3716 14.9314 11.1856 15 10.9996 15C10.8016 15 10.6036 14.922 10.4562 14.7671C10.1705 14.4671 10.1821 13.9928 10.4821 13.707L16.2353 8.25008H1.24972C0.83573 8.25008 0.499733 7.91409 0.499733 7.50009C0.499733 7.0861 0.83573 6.7501 1.24972 6.7501Z" fill="#555555"/>
</svg>
