<svg width="19" height="15" viewBox="0 0 19 15" fill="none" xmlns="http://www.w3.org/2000/svg">
<path d="M1.25021 6.7501H16.2122L10.483 1.29317C10.183 1.00742 10.1714 0.532676 10.4571 0.23268C10.7425 -0.0669413 11.2172 -0.0789412 11.5176 0.206805L18.0605 6.43923C18.3436 6.72273 18.5 7.09922 18.5 7.50009C18.5 7.90059 18.3436 8.27746 18.0474 8.57333L11.5172 14.793C11.3721 14.9314 11.1861 15 11.0001 15C10.8021 15 10.6041 14.922 10.4567 14.7671C10.171 14.4671 10.1826 13.9928 10.4826 13.707L16.2358 8.25008H1.25021C0.836218 8.25008 0.500221 7.91409 0.500221 7.50009C0.500221 7.0861 0.836218 6.7501 1.25021 6.7501Z" fill="white"/>
</svg>
