<svg width="19" height="15" viewBox="0 0 19 15" fill="none" xmlns="http://www.w3.org/2000/svg">
<path d="M17.7498 6.7501H2.78785L8.51703 1.29317C8.81702 1.00742 8.82865 0.532676 8.5429 0.23268C8.25753 -0.0669413 7.78279 -0.0789412 7.48241 0.206805L0.939495 6.43923C0.656373 6.72273 0.5 7.09922 0.5 7.50009C0.5 7.90059 0.656373 8.27746 0.952619 8.57333L7.48279 14.793C7.62791 14.9314 7.81391 15 7.99991 15C8.19791 15 8.3959 14.922 8.54328 14.7671C8.82902 14.4671 8.8174 13.9928 8.5174 13.707L2.76422 8.25008H17.7498C18.1638 8.25008 18.4998 7.91409 18.4998 7.50009C18.4998 7.0861 18.1638 6.7501 17.7498 6.7501Z" fill="#555555"/>
</svg>
