<svg width="15" height="17" viewBox="0 0 15 17" fill="none" xmlns="http://www.w3.org/2000/svg">
<path d="M8.87424 8.28813L14.715 1.84408C15.0951 1.42492 15.0951 0.7472 14.715 0.328041C14.335 -0.0911179 13.7207 -0.0911179 13.3408 0.328041L7.49993 6.77209L1.65922 0.328041C1.27911 -0.0911179 0.665003 -0.0911179 0.285078 0.328041C-0.0950259 0.7472 -0.0950259 1.42492 0.285078 1.84408L6.12579 8.28813L0.285078 14.7322C-0.0950259 15.1513 -0.0950259 15.8291 0.285078 16.2482C0.474418 16.4573 0.723371 16.5623 0.972147 16.5623C1.22092 16.5623 1.4697 16.4573 1.65922 16.2482L7.49993 9.80417L13.3408 16.2482C13.5303 16.4573 13.7791 16.5623 14.0279 16.5623C14.2767 16.5623 14.5254 16.4573 14.715 16.2482C15.0951 15.8291 15.0951 15.1513 14.715 14.7322L8.87424 8.28813Z" fill="#231F20"/>
</svg>
