<svg width="15" height="11" viewBox="0 0 15 11" fill="none" xmlns="http://www.w3.org/2000/svg">
<path d="M14.9884 1.23143C14.9884 1.21429 15.0002 1.19761 14.9994 1.18066L10.4219 5.59132L14.9939 9.86107C14.9966 9.83057 14.9884 9.79982 14.9884 9.76866V1.23143Z" fill="#2091E8"/>
<path d="M9.72299 6.27002L7.85433 8.06791C7.75977 8.15888 7.63764 8.2045 7.51545 8.2045C7.3958 8.2045 7.27615 8.16084 7.18224 8.07332L5.31866 6.33675L0.716797 10.7724C0.828692 10.8126 0.948799 10.8439 1.07458 10.8439H13.9564C14.1432 10.8439 14.3183 10.787 14.4706 10.7021L9.72299 6.27002Z" fill="#2091E8"/>
<path d="M7.51172 7.04281L14.4976 0.313373C14.3394 0.219334 14.1553 0.15625 13.958 0.15625H1.0762C0.819233 0.15625 0.583777 0.256024 0.400391 0.408194L7.51172 7.04281Z" fill="#2091E8"/>
<path d="M0 1.39551V9.76872C0 9.86484 0.0220924 9.95751 0.0460746 10.0461L4.59085 5.66957L0 1.39551Z" fill="#2091E8"/>
</svg>
