<svg width="15" height="15" viewBox="0 0 15 15" fill="none" xmlns="http://www.w3.org/2000/svg">
<path d="M7.50079 0C4.50533 0 2.06836 2.43697 2.06836 5.4324C2.06836 9.14982 6.92985 14.6072 7.13684 14.8377C7.33125 15.0543 7.67068 15.0539 7.86475 14.8377C8.07173 14.6072 12.9332 9.14982 12.9332 5.4324C12.9332 2.43697 10.4962 0 7.50079 0ZM7.50079 8.1656C5.9937 8.1656 4.76763 6.93949 4.76763 5.4324C4.76763 3.92531 5.99373 2.69924 7.50079 2.69924C9.00785 2.69924 10.2339 3.92534 10.2339 5.43243C10.2339 6.93952 9.00785 8.1656 7.50079 8.1656Z" fill="#2091E8"/>
</svg>
