<?xml version="1.0" encoding="iso-8859-1"?>
<!-- Generator: Adobe Illustrator 16.0.0, SVG Export Plug-In . SVG Version: 6.00 Build 0)  -->
<!DOCTYPE svg PUBLIC "-//W3C//DTD SVG 1.1//EN" "http://www.w3.org/Graphics/SVG/1.1/DTD/svg11.dtd">
<svg version="1.1" id="Layer_1" xmlns="http://www.w3.org/2000/svg" xmlns:xlink="http://www.w3.org/1999/xlink" x="0px" y="0px"
	 width="1307.935px" height="413.979px" viewBox="0 0 1307.935 413.979" style="enable-background:new 0 0 1307.935 413.979;"
	 xml:space="preserve">
<g>
	<defs>
		<rect id="SVGID_1_" x="-28.123" y="-158.102" width="1366" height="768"/>
	</defs>
	<clipPath id="SVGID_2_">
		<use xlink:href="#SVGID_1_"  style="overflow:visible;"/>
	</clipPath>
	<path style="clip-path:url(#SVGID_2_);fill:#4294BC;" d="M342.554,190.282c0,0-3.374-0.225-11.247,10.139
		c-7.873,10.363-7.423,7.407-9.673,0c-2.249-7.407-2.699-34.882-2.699-38.706c0-3.824-2.474-6.973-3.374-7.423
		c-0.9-0.45-0.225,5.848-2.024,6.073c-1.8,0.225-10.272-12.596-10.272-12.596s-0.136,28.693-2.652,47.459
		c-2.515,18.766-10.811,35.628-10.811,35.628c5.1-4.963,13.463-23.389,13.463-23.389c-5.439,22.913-24.953,44.943-24.953,44.943
		l7.895-14.316c-7.934,13.785-27.968,29.951-27.968,29.951s17.157-23.208,15.571-21.521c-1.587,1.686-24.795,20.53-24.795,20.53
		s18.646-17.654,16.96-16.365c-1.687,1.29-27.274,21.324-28.365,21.521c-1.091,0.198,1.289-0.893,3.57-2.776
		c2.281-1.884,25.985-23.406,33.82-31.043c7.835-7.637,19.339-41.754,16.563-39.076c-1.167,1.126-4.127,7.181-7.166,13.822
		c7.498-26.793,4.863-61.038,3.212-67.642c-2.098-8.393-10.301-21.842-12.399-25.752c-2.099-3.911-10.683-14.784-9.252-10.301
		c1.431,4.483,6.2,10.682,7.916,14.402c1.717,3.72,4.292,14.784,5.151,19.266c0.858,4.483-1.526,5.912-1.526,5.912
		c-0.652-7.176-8.154-21.853-11.627-22.179c-3.474-0.326-12.618-3.816-3.62,17.553c8.997,21.369-0.45,64.107-10.123,85.477
		c-9.672,21.369-23.18,24.293-25.855,27.88c-2.674,3.589-9.98,11.612-27.619,23.919c-29.313,14.352-57.405,18.016-105.039-11.908
		c-47.635-29.925-39.39-81.833-36.337-94.657c-6.351,5.966-4.67,31.598-7.145,31.823c-2.474,0.225-2.924,15.97-2.924,15.97
		s-8.998-22.493-9.223-32.616c-0.224-10.122-3.823-14.396-3.823-14.396c-6.974,13.497,0,55.11,0,55.11
		c-4.274-3.374-9.223-32.841-9.223-32.841c-11.922,11.247-1.8,45.213-1.8,45.213c23.844,52.187,40.714,57.81,53.761,70.182
		c13.046,12.37,16.42,10.347,52.411,24.293c35.99,13.945,86.601,1.35,86.601,1.35l2.025-3.599
		c26.767-4.499,57.359-22.044,79.853-38.69c22.494-16.645,27.442-47.237,36.215-62.308
		C342.779,219.524,342.554,190.282,342.554,190.282 M272.276,204.825c3.163-13.202,5.226-33.418,4.951-43.182
		c3.3,7.014,5.501,12.652,2.2,25.992c-3.3,13.339-8.801,29.154-10.314,30.942c-1.513,1.787-3.3,3.438-7.013,6.738
		c-3.713,3.301-6.601,5.638-6.601,5.638C258.524,224.353,269.113,218.027,272.276,204.825 M140.882,302.063
		c31.544,5.061,66.46,0,66.46,0C183.558,310.328,153.196,307.629,140.882,302.063 M225.56,296.833l-1.012-1.181
		c0,0-5.904,3.543-12.651,3.374c8.94-4.555,26.314-12.146,34.411-18.049c8.096-5.904,18.049-13.326,26.483-21.591
		C272.791,259.387,261.995,280.809,225.56,296.833"/>
	<path style="clip-path:url(#SVGID_2_);fill:#FFDB6F;" d="M326.854,255.559c-0.27-4.888-11.868,18.533-15.119,22.597
		c-3.251,4.064-9.551,15.455-12.774,17.854c-3.222,2.398,2.532-5.011-1.207-4.687c-3.739,0.325-2.113,4.228-8.779,8.779
		c-6.665,4.552-16.257,12.03-23.41,15.444s-22.922,13.493-30.888,16.907c-7.966,3.413-17.922,8.778-22.779,10.241
		c-4.858,1.463-15.912,3.577-24.691,5.365c-8.779,1.788-15.444,0.488-28.937,1.138c-13.493,0.65-19.509-0.324-33.49-3.576
		c-13.98-3.251-30.888-10.729-39.829-17.558c-8.941-6.828-24.71-18.695-32.026-27.637S34.41,274.407,31.791,265.15l10.511,13.316
		c0,0-1.082-6.001-5.634-13.316c-4.552-7.315-11.705-18.857-12.68-26.174c-0.976-7.316-0.954-32.01,0-36.416
		c0.953-4.405,6.329,22.352,8.252,25.395c1.923,3.042,3.778,5.007,3.29-0.195c-0.488-5.203-1.626-21.134-1.626-29.75
		c0-8.617,1.462-20.132,1.462-20.132s3.09,20.132,4.391,27.122c1.3,6.99,5.527,16.907,5.527,16.907l1.788,1.788
		c0,0-2.763-16.419-2.926-24.222c-0.162-7.804,4.715-32.352,8.941-38.042c0,0-9.754,9.429-12.517,35.766
		c0,0-4.065-16.745-3.739-22.597c0.325-5.853,2.276-14.469-1.138-13.981c-3.414,0.487-8.779,9.103-10.405,20.483
		s-2.024,14.469-2.024,14.469s-2.203-2.113-3.178-5.527c-0.975-3.414-0.77-10.73-0.954-13.494c-0.184-2.763,0.466-3.901-1.972-1.625
		c-2.439,2.276-5.853,12.355-6.341,17.069c-0.487,4.715-6.502,10.73-1.625,45.52s18.695,59.5,31.701,74.456
		c13.005,14.957,40.317,42.431,80.309,51.372c39.992,8.941,67.791,1.626,84.373-2.926c16.582-4.553,34.14-12.519,45.357-18.858
		c11.217-6.34,26.824-19.183,27.8-19.833c0.975-0.651-13.331,15.281-13.331,15.281s11.542-8.779,14.956-11.056
		c3.414-2.275,19.183-18.155,21.784-21.27c2.602-3.115,0.326-2.655,1.138-5.649c0.813-2.992,9.917-17.462,13.981-24.127
		C321.327,268.238,327.083,259.712,326.854,255.559"/>
	<path style="clip-path:url(#SVGID_2_);fill:#4294BC;" d="M335.018,241.969c8.277-27.025,12.161-33.106,11.148-54.895
		c-1.013-21.79,3.716-11.655,3.716-11.655S349.789,220.152,335.018,241.969"/>
	<path style="clip-path:url(#SVGID_2_);fill:#4294BC;" d="M345.786,139.797c0.461,0.806,2.419-0.576,1.958-2.189
		c-0.46-1.612-1.843-7.372-1.958-10.943C342.906,129.199,345.095,135.42,345.786,139.797"/>
	<path style="clip-path:url(#SVGID_2_);fill:#4294BC;" d="M198.488,61.563c5.988,2.744,22.453,9.48,31.684,15.468
		c9.231,5.987,18.711,12.474,22.702,19.459c3.992,6.986,7.235,11.297,8.483,11.886c1.247,0.588,1.996-1.158,0-4.651
		c-1.996-3.493-9.48-12.701-15.468-18.699C239.902,79.027,217.199,57.323,198.488,61.563"/>
	<path style="clip-path:url(#SVGID_2_);fill:#4294BC;" d="M282.313,109.962c1.247,3.493,11.476,24.467,11.227,30.071
		C293.54,140.034,294.537,117.945,282.313,109.962"/>
	<path style="clip-path:url(#SVGID_2_);fill:#4294BC;" d="M252.126,54.578c16.715,13.472,27.193,35.426,37.921,43.409
		C289.548,100.732,276.824,65.056,252.126,54.578"/>
	<path style="clip-path:url(#SVGID_2_);fill:#86D3EA;" d="M262.251,144.395c-7.932-12.774-13.862-30.564-27.798-44.797
		c-13.937-14.232-22.535-18.384-28.762-18.68l8.318,7.305l-15.521-2.728c0,0,31.058,15.538,34.141,21.231
		c3.084,5.693,4.626,9.725,4.626,9.725s-3.084-6.404-15.419-11.742c-12.334-5.337-17.316-4.032-25.737-7.946
		s-18.027-5.337-26.804-6.523c-8.777-1.186-9.251-2.61-9.251-2.61s6.997-7.353,15.062-7.946c8.066-0.593,12.335-0.593,12.335-0.593
		s-9.963-4.863-23.483-3.914c-13.521,0.949-19.451,2.372-19.451,2.372s10.081-4.981,18.976-6.405
		c8.896-1.423,25.975-1.067,37.242,1.898c11.267,2.965,31.786,12.216,37.835,18.858c6.049,6.642,19.688,12.335,26.211,25.856
		c6.523,13.521,7.206,16.185,7.206,16.185S261.984,138.181,262.251,144.395"/>
	<path style="clip-path:url(#SVGID_2_);fill:#86D3EA;" d="M261.356,108.376c-2.103-2.084-19.836-14.973-21.894-20.745
		C239.462,87.631,258.509,100.114,261.356,108.376"/>
	<path style="clip-path:url(#SVGID_2_);fill:#84D3E4;" d="M335.942,194.92c0.976-1.051,5.099-4.147,4.464-6.145
		c-0.635-1.998-1.199-21.188-1.799-22.987c-0.6-1.799-1.999-2.199-1.999-2.199s0.4-12.193-3.998-31.183
		c-4.397-18.989-12.193-34.981-16.99-41.777c-4.798-6.796-17.391-21.188-24.587-27.984c-7.196-6.797-29.583-22.788-35.18-25.186
		c-5.597-2.399-6.797-1.799-5.444,1.799c1.352,3.598,8.242,10.994,8.042,16.79c-0.2,5.797-5.197,1.799-10.994,1.2
		c-5.796-0.6-20.788-8.196-29.783-9.395c-8.995-1.199-21.588-4.398-14.392-0.8c7.196,3.598,21.788,13.965,21.788,13.965
		c-8.196-3.826-35.98-8.967-29.821-6.441c6.16,2.527,18.627,6.441,18.627,6.441s-19.589-2.971-18.59-2.171
		c1,0.799,3.201,2.716,9.595,3.998c6.393,1.281,18.875,4.651,22.658,6.992c3.784,2.34,7.123,5.152,13.722,8.799
		c6.598,3.646,26.985,21.588,26.985,21.588c-3.798-5.597-17.837-23.867-17.837-23.867c10.547,6.317,34.628,47.054,37.526,50.307
		c2.899,3.253,11.294,18.735,15.092,14.937c3.797-3.798,1.799-21.988,1.799-21.988s1.399,1,6.396,7.051
		c4.997,6.052,9.395,21.134,9.995,32.327c0.599,11.194,2.998,20.589,1.998,30.184c-0.999,9.594,1.2,10.394,3.645,18.341
		L335.942,194.92z"/>
	<path style="clip-path:url(#SVGID_2_);fill:#DAF0F6;" d="M261.356,54.578c-3.42-1.799-29.547-22.787-44.64-24.766
		c-15.094-1.98-47.26-6.186-56.168-4.701c-8.908,1.484-10.64,2.969-2.474,6.928c8.165,3.959,29.329,12.375,36.292,13.114
		c6.963,0.738,14.653,5.984,18.143,9.425c3.491,3.441-1.816,0.225-14.022-3.982c-12.206-4.206-13.69-8.412-20.618-8.66
		c-6.929-0.247-3.959,1.237-10.393,3.217c-6.433,1.979-21.774,6.68-29.197,8.413c-7.423,1.732-12.619,4.453-13.609,6.185
		c-0.99,1.732,8.165,0,4.454,4.454c-3.712,4.454-4.529,6.132-4.529,6.132s10.467-5.637,17.89-5.884
		c7.423-0.248,26.723,1.979,35.878,1.484c9.156-0.495,3.712-2.721,0.99-3.216s8.66-1.732,17.073,0.989
		c8.413,2.722,26.914,14.448,31.424,14.599c4.511,0.151,9.612,6.519,9.403,9.322c-0.21,2.804,28.66,20.832,30.166,19.735
		c1.506-1.097,6.57-5.256,3.667-9.362c-2.904-4.107-13.986-18.416-18.961-20.416c-4.975-2.001-24.15-8.212-29.844-10.015
		c-5.693-1.802-14.04-7.38-14.04-7.38s11.614,1.297,13.671,0.825s1.979-6.463-1.237-8.442c-3.217-1.98,6.414,1.286,13.114,2.002
		s27.906,7.895,28.799,2.699C263.481,52.081,261.356,54.578,261.356,54.578"/>
	<path style="clip-path:url(#SVGID_2_);fill:#4294BC;" d="M286.74,53.318c-16.331-10.145-29.887-21.774-34.615-22.022
		c-4.727-0.247-12.434-6.928-12.663-7.918c-0.23-0.989,5.709-1.364,9.173,1.421c3.464,2.786,11.299,6.992,23.341,15.158
		C284.019,48.122,283.523,49.359,286.74,53.318"/>
	<path style="clip-path:url(#SVGID_2_);fill:#4294BC;" d="M192.22,9.027c2.969,0,7.176,2.474,13.114,3.712
		C210.283,19.172,203.603,3.089,192.22,9.027"/>
	<path style="clip-path:url(#SVGID_2_);fill:#4294BC;" d="M286.74,33.832c7.488,4.443,13.275,11.365,13.481,10.849
		C300.428,44.164,298.264,36.828,286.74,33.832"/>
	<path style="clip-path:url(#SVGID_2_);fill:#DAF0F6;" d="M180.843,94.571c-9.959-0.089-45.345,1.35-45.345,1.35
		s-1.012-2.7,5.736-3.037s35.798-13.335,30.967-12.702c-4.832,0.634-12.072-0.794-29.955,2.58
		c-17.883,3.374-14.846,4.049-37.79,15.242c-22.943,11.193-14.508,20.86-9.785,11.958c4.724-8.902,32.054-16.403,25.643-11.958
		c-6.41,4.445-11.809,19.848-11.809,19.848s12.147-8.772,32.391-14.171c20.245-5.399,42.176-2.699,70.856,4.807
		C211.752,108.488,199.533,97.27,180.843,94.571"/>
	<path style="clip-path:url(#SVGID_2_);fill:#86D3EA;" d="M141.851,79.005c-5.095,0.425-12.595,2.123-15.709,3.538
		c-3.113,1.415-3.538,2.863,1.416,2.21c4.953-0.653,13.444-2.103,14.293-2.793C142.7,81.27,141.851,79.005,141.851,79.005"/>
	<path style="clip-path:url(#SVGID_2_);fill:#86D3EA;" d="M122.604,83.534c-4.812,0.849-34.955,11.653-48.682,38.234
		c0,0,0.566,0.825,4.245-2.996C81.847,114.951,96.282,95.705,122.604,83.534"/>
	<path style="clip-path:url(#SVGID_2_);fill:#86D3EA;" d="M88.357,119.338c-1.698,0.991-9.199,8.633-8.916,9.765
		C79.724,130.235,86.579,125.327,88.357,119.338"/>
	<path style="clip-path:url(#SVGID_2_);fill:#86D3EA;" d="M70.384,95.139c-1.557,0.849-27.596,28.304-29.86,38.068
		C40.524,133.207,63.167,105.044,70.384,95.139"/>
	<path style="clip-path:url(#SVGID_2_);fill:#86D3EA;" d="M145.248,49.145c-6.51-0.283-38.776,4.529-55.475,19.53
		C89.772,68.675,121.517,53.127,145.248,49.145"/>
	<path style="clip-path:url(#SVGID_2_);fill:#2A5A75;" d="M567.539,199.686c-6.357-1.869-36.272,0.978-36.272,0.978
		s-18.323-23.788-63.382-30.145l2.992-2.43c0,0,45.994-3.553,77.405-28.793c31.41-25.241,31.74-39.551,25.044-52.872
		c-12.153-20.193-62.642-19.473-96.653-16.868c-19.207,1.491-78.212,2.686-156.68,35.15c-8.975,6.731-13.649,14.023-11.779,24.493
		c0,0,1.754,1.256,13.289-1.627c10.668-2.667,13.447-5.851,19.617-13.891s13.836-11.909,25.241-15.677
		c11.405-3.768,66-20.034,102.085-22.839c36.085-2.804,64.878-3.926,83.201,8.975c18.323,12.901,2.431,43.938-57.773,67.309
		c-24.867,10.283-43.938,5.422-60.559,11.218c-11.05,7.291-9.368,11.031-7.685,14.396c1.683,3.366,23.558-0.935,37.581,2.618
		c14.023,3.552,32.158,7.479,48.051,23.558c0,0-75.536,14.583-117.043,45.433c-39.45,28.046-44.498,42.068-42.442,57.773
		c2.057,15.705,35.711,35.898,108.629,6.543c69.553-28.979,74.601-60.576,78.527-73.291c2.618-16.64-1.122-24.68-3.365-34.028
		c7.292-2.991,17.014-1.121,21.688-1.121c4.674,0,8.227,4.574,11.779,2.38C572.587,204.735,572.214,200.995,567.539,199.686
		 M517.144,248.749c-13.952,28.261-60.5,52.354-65.823,55.27c-17.171,7.333-69.221,29.87-88.002,6.081
		c-11.984-25.041,35.058-56.879,39.351-59.741c26.83-22.536,101.596-40.782,111.433-42.034
		C530.254,224.051,518.194,246.089,517.144,248.749"/>
	<path style="clip-path:url(#SVGID_2_);fill:#2A5A75;" d="M1062.628,198.268c-5.061-3.936-8.21-1.462-8.885,7.648
		c-0.675,9.11,3.486,13.047,0.45,22.269c-3.037,9.224-14.621,29.806-28.23,35.091c-13.608,5.286-20.807,1.237-16.871-17.096
		c3.938-18.332,14.173-25.08,16.983-32.503c2.813-7.423-15.408-3.037-19.344,4.723c-3.938,7.761-31.154,39.702-40.264,41.838
		c-4.949,1.688-1.688-3.823,1.687-8.659s10.347-17.097,5.398-42.29c0,0-2.475-9.785-14.847-5.848
		c-6.072,4.274,2.138,14.059,4.725,18.22c2.587,4.161,1.047,14.721-3.712,22.269s-25.306,15.858-37.564,20.132
		c-12.26,4.274-20.132-0.112-13.834-11.135s18.67-21.256,24.068-33.403s0.449-22.381-16.533-16.421
		c-16.983,5.961-48.699,33.854-54.997,38.802c-6.298,4.949,9.897-20.581,13.946-26.091c4.049-5.511,38.239-63.771,42.626-70.631
		c4.386-6.861,18.606-26.063,22.142-35.367c3.536-9.304-3.163-15.073-9.862-13.398c-6.699,1.674-10.979,12.654-12.096,27.168
		c-2.604,14.887-66.619,108.303-69.41,116.863c0,0-25.308,15.259-44.103,20.655s-37.031,10.793-32.751-11.724
		c4.28-22.516,33.681-39.686,44.847-42.453c11.165-2.766,10.42,4.492,10.048,5.794c-0.372,1.303-9.676,12.468-9.676,12.468
		s1.488,2.233,5.955,1.117c4.466-1.117,13.212-10.794,17.306-16.004s4.466-8.932,0.559-8.932c-3.908,0-10.979,2.927-11.537,5.557
		c0,0-6.7-6.674-18.609-5.371c-11.91,1.303-37.962,10.607-52.291,41.125c0,0-24.749,16.19-32.937,18.609
		c-8.188,2.419-24.005,7.257-18.795-4.652c0,0,2.604-14.143,9.862-17.12c0,0,6.327-4.466,8.001-11.724
		c1.676-7.257-3.534-14.515-7.442-15.073c0,0-6.142,6.141-8.374,9.863c-2.233,3.722-17.12,19.725-22.517,22.702
		s-34.985,33.682-40.009,13.025c0,0,5.582-18.05,25.122-31.262c12.753-8.624,14.701-14.887,30.89-19.353
		c13.599-3.751,23.634,1.675,26.053,10.607c0.186,1.116,5.955,7.257,7.443-0.558c1.488-7.816-6.885-13.771-16.376-15.632
		c-9.489-1.861-51.731-5.582-78.156,40.567c0,0-32.007,19.167-55.454,20.656c-23.447,1.489-24.936-2.979-22.703-17.678
		c0,0,2.791-7.631,7.816-8.002c0,0,12.467,4.279,30.89-6.142c18.423-10.421,23.447-17.12,18.795-27.913c0,0-3.663-5.813-17.37-2.348
		c-6.694,2.44-47.075,15.232-50.337,44.924c-0.112,3.262-6.2,30.817,40.988,21.932c0,0,31.892-9.896,44.376-20.582
		c0,0-8.435,22.156,12.147,23.731s37.79-27.443,50.499-32.504c0,0,1.688,0.675,0,3.599c-1.687,2.925-9.896,16.083-4.161,22.832
		c5.735,6.748,21.031,3.6,35.766-2.812c14.732-6.411,20.807-11.584,25.08-14.734c0,0,0.112,13.497,7.086,19.684
		c6.973,6.185,24.293,12.709,78.953-19.684c0,0-2.812,6.749-3.823,9.11c-1.014,2.361-2.587,13.159,4.836,12.822
		c0,0,12.596-20.582,21.369-24.969c9.896-6.973,30.816-32.279,48.924-33.516c7.423-0.45,3.937,8.21,2.475,10.459
		c-1.463,2.25-25.081,32.054-18.67,42.964c6.41,10.909,30.142,4.836,46.674-6.522c16.533-11.36,11.36-6.074,11.36-6.074
		s-11.36,11.021-3.824,16.758c7.535,5.736,16.79-3.578,25.98-11.022c11.247-9.109,16.871-20.019,21.481-22.493
		c0,0-1.687,12.146-0.899,18.67c0.787,6.522,4.387,22.269,27.218,13.834c22.831-8.436,27.78-26.543,33.741-36.44
		C1065.891,221.325,1067.689,202.205,1062.628,198.268 M611.198,207.531c14.344,1.23-10.25,29.774-39.916,25.503
		C576.079,229.886,593.36,208.708,611.198,207.531"/>
	<path style="clip-path:url(#SVGID_2_);fill:#2A5A75;" d="M1300.395,235.662c-4.547,1.238-6.819,5.373-9.713,10.746
		c-2.893,5.373-11.573,11.158-20.873,16.119c-9.3,4.96-33.271,13.433-33.271,13.433c4.546-10.953,25.419-46.912,25.419-46.912
		l3.72-0.826c8.68-4.547,7.646-14.053,7.44-20.253c-0.207-6.2-4.341-6.82-8.268-6.613c-3.926,0.207-3.513,6.613-8.059,12.813
		c-4.547,6.2-16.533,19.219-22.94,23.766c-6.406,4.546-25.832,19.013-31.825,21.492c-5.993,2.48-13.64,2.688-11.779-2.893
		c1.859-5.58,22.318-36.785,25.006-40.919c2.687-4.133-0.207-10.333-2.894-13.432c-2.687-3.1-7.646-2.067-12.192,4.745
		c-4.547,6.813-5.993,14.681-6.407,18.194c-0.413,3.513-5.993,11.159-8.473,14.053c-2.48,2.893-2.273,6.2-20.459,16.946
		c-18.187,10.746-27.899,8.68-27.899,8.68c-7.44-3.1-0.827-10.333,0.62-16.74c1.446-6.405,1.86-2.479,10.333-10.953
		c8.473-8.473,4.546-13.639,1.86-19.013c-2.688-5.373-4.961-5.579-7.027-4.546c-3.72,3.1-5.464,9.69-11.986,16.119
		c-8.463,7.004-28.726,30.586-47.531,35.133c-23.146,0,7.232-29.346,12.813-35.339c25.833-25.006,44.02-23.766,52.079-21.286
		c8.059,2.48,7.026,11.779,13.639,12.399c14.466-6.406-5.58-15.086-5.58-15.086c-38.958-12.843-58.277,7.233-72.537,17.98
		c-13.506,10.178-30.586,47.945-5.993,46.911c24.593-1.033,50.839-31.412,50.839-31.412l1.239,1.447
		c-13.64,21.286-4.133,25.625-4.133,25.625c21.967,12,51.664-12.813,51.664-12.813c-5.166,17.359,5.167,16.739,5.167,16.739
		c32.652,0.207,64.271-36.579,64.271-36.579c-1.24,4.96-23.353,45.879-23.353,45.879c-70.678,14.673-87.004,30.379-101.057,38.646
		c-14.053,8.266-50.632,41.332-38.646,70.058c29.346,47.738,83.283-8.887,83.283-8.887c41.332-38.025,68.198-98.163,68.198-98.163
		c54.765-16.739,64.479-35.132,66.958-39.679C1304.527,236.695,1304.94,234.422,1300.395,235.662 M1146.75,381.515
		c-31.501,22.665-52.821,14.982-55.126-2.305c-2.306-17.287,3.073-28.813,28.811-53.205c25.739-24.394,95.463-40.529,98.729-40.721
		C1219.163,285.284,1178.251,358.85,1146.75,381.515"/>
	<polygon style="clip-path:url(#SVGID_2_);fill:#79797B;" points="300.105,349.613 300.105,359.13 283.374,359.13 283.374,406.783 
		270.341,406.783 270.341,359.13 253.698,359.13 253.698,349.613 	"/>
	<polygon style="clip-path:url(#SVGID_2_);fill:#79797B;" points="365.704,349.613 365.704,406.783 352.67,406.783 352.67,382.177 
		329.599,382.177 329.599,406.783 316.566,406.783 316.566,349.613 329.599,349.613 329.599,372.437 352.67,372.437 352.67,349.613 
			"/>
	<polygon style="clip-path:url(#SVGID_2_);fill:#79797B;" points="425.577,397.565 425.577,406.783 387.711,406.783 
		387.711,349.613 424.168,349.613 424.168,358.832 400.744,358.832 400.744,372.66 422.847,372.66 422.847,381.655 400.744,381.655 
		400.744,397.565 	"/>
	<path style="clip-path:url(#SVGID_2_);fill:#79797B;" d="M444.416,350.356c4.491-0.669,10.832-1.189,17.436-1.189
		c8.541,0,25.801,0.892,25.801,16.207c0,6.987-5.284,12.118-11.624,14.198v0.225c4.755,1.561,7.397,5.427,8.982,11.226
		c1.938,6.766,3.699,13.604,5.02,15.761h-13.385c-0.969-1.636-2.642-6.616-4.227-13.53c-1.761-7.36-4.491-9.665-10.655-9.665h-4.403
		v23.195h-12.945V350.356z M457.36,375.411h5.371c7.397,0,11.888-3.644,11.888-9.07c0-7.36-6.516-8.773-11.271-8.773
		c-2.906,0-4.932,0.149-5.988,0.445V375.411z"/>
	<path style="clip-path:url(#SVGID_2_);fill:#79797B;" d="M537.928,349.614l18.933,57.169h-13.649l-4.843-15.091h-18.14
		l-4.667,15.091h-13.209l19.196-57.169H537.928z M522.078,383.365h14.441l-4.05-13.011c-1.057-3.568-2.202-8.178-3.082-11.672
		h-0.264c-0.881,3.569-2.025,8.252-2.994,11.599L522.078,383.365z"/>
	<path style="clip-path:url(#SVGID_2_);fill:#79797B;" d="M574.467,406.783v-56.427c4.227-0.669,10.039-1.189,17.524-1.189
		c8.542,0,14.97,1.412,19.285,4.534c4.051,2.9,6.516,7.51,6.516,12.788c0,15.688-15.498,19.182-25.625,19.182
		c-1.849,0-3.434-0.076-4.755-0.299v21.411H574.467z M587.412,376.748c1.232,0.224,2.641,0.298,4.579,0.298
		c8.101,0,12.857-3.866,12.857-10.036c0-6.098-4.58-9.293-11.8-9.293c-2.642,0-4.491,0.223-5.636,0.445V376.748z"/>
	<path style="clip-path:url(#SVGID_2_);fill:#79797B;" d="M667.893,349.613h14.353l-20.077,33.529v23.641h-13.033v-23.27
		l-19.197-33.9h14.53l6.693,14.05c1.936,4.091,3.522,7.657,5.107,11.599h0.176c1.321-3.792,2.994-7.508,4.931-11.672
		L667.893,349.613z"/>
	<path style="clip-path:url(#SVGID_2_);fill:#79797B;" d="M766.773,359.873c-2.643-0.967-6.164-1.86-10.831-1.86
		c-11.185,0-20.166,6.469-20.166,20.296c0,12.937,7.838,19.852,20.078,19.852c4.05,0,8.364-0.67,11.007-1.637l1.849,8.847
		c-2.553,1.042-8.013,2.156-14.97,2.156c-20.341,0-31.613-11.673-31.613-28.621c0-19.999,15.234-30.11,33.198-30.11
		c7.31,0,12.063,1.264,14.002,2.156L766.773,359.873z"/>
	<polygon style="clip-path:url(#SVGID_2_);fill:#79797B;" points="824.888,397.565 824.888,406.783 787.021,406.783 
		787.021,349.613 823.479,349.613 823.479,358.832 800.055,358.832 800.055,372.66 822.157,372.66 822.157,381.655 800.055,381.655 
		800.055,397.565 	"/>
	<path style="clip-path:url(#SVGID_2_);fill:#79797B;" d="M893.039,349.613v57.17h-13.033l-14.53-23.641
		c-3.609-5.873-7.572-12.938-10.391-19.181h-0.352c0.528,7.063,0.793,15.091,0.793,25.275v17.546h-11.801v-57.17h14.09
		l14.266,23.194c3.61,5.726,7.397,12.714,10.127,18.66h0.176c-0.793-7.284-1.145-15.39-1.145-24.683v-17.172H893.039z"/>
	<polygon style="clip-path:url(#SVGID_2_);fill:#79797B;" points="956.082,349.613 956.082,359.13 939.352,359.13 939.352,406.783 
		926.318,406.783 926.318,359.13 909.676,359.13 909.676,349.613 	"/>
	<polygon style="clip-path:url(#SVGID_2_);fill:#79797B;" points="1010.41,397.565 1010.41,406.783 972.545,406.783 
		972.545,349.613 1009.001,349.613 1009.001,358.832 985.576,358.832 985.576,372.66 1007.68,372.66 1007.68,381.655 
		985.576,381.655 985.576,397.565 	"/>
	<path style="clip-path:url(#SVGID_2_);fill:#79797B;" d="M1029.248,350.356c4.491-0.669,10.832-1.189,17.437-1.189
		c8.541,0,25.801,0.892,25.801,16.207c0,6.987-5.284,12.118-11.624,14.198v0.225c4.756,1.561,7.397,5.427,8.981,11.226
		c1.938,6.766,3.699,13.604,5.021,15.761h-13.385c-0.97-1.636-2.643-6.616-4.228-13.53c-1.761-7.36-4.491-9.665-10.655-9.665h-4.402
		v23.195h-12.945V350.356z M1042.193,375.411h5.372c7.396,0,11.887-3.644,11.887-9.07c0-7.36-6.516-8.773-11.271-8.773
		c-2.906,0-4.933,0.149-5.988,0.445V375.411z"/>
	<path style="clip-path:url(#SVGID_2_);fill:#195A74;" d="M471.681,84.831c-8.401,6.084-50.697,45.193-70.975,73.003
		c-20.279,27.811-57.07,80.536-62.285,102.842c-1.927,12.335,3.433,15.642,9.819,16.098c0,0,43.932-117.859,107.027-158.685
		C484.284,110.328,488.095,78.228,471.681,84.831"/>
</g>
</svg>
