<svg width="15" height="16" viewBox="0 0 15 16" fill="none"
    xmlns="http://www.w3.org/2000/svg">
    <g clip-path="url(#clip0_2427_9510)">
        <path d="M8.87424 8.01217L14.715 2.17129C15.0951 1.79136 15.0951 1.17708 14.715 0.797151C14.335 0.417226 13.7207 0.417226 13.3408 0.797151L7.49993 6.63803L1.65922 0.797151C1.27911 0.417226 0.665003 0.417226 0.285078 0.797151C-0.0950259 1.17708 -0.0950259 1.79136 0.285078 2.17129L6.12579 8.01217L0.285078 13.853C-0.0950259 14.233 -0.0950259 14.8473 0.285078 15.2272C0.474418 15.4167 0.723371 15.5119 0.972147 15.5119C1.22092 15.5119 1.4697 15.4167 1.65922 15.2272L7.49993 9.3863L13.3408 15.2272C13.5303 15.4167 13.7791 15.5119 14.0279 15.5119C14.2767 15.5119 14.5254 15.4167 14.715 15.2272C15.0951 14.8473 15.0951 14.233 14.715 13.853L8.87424 8.01217Z" fill="#555555"/>
    </g>
    <defs>
        <clipPath id="clip0_2427_9510">
            <rect width="15" height="15" fill="white" transform="translate(0 0.5)"/>
        </clipPath>
    </defs>
</svg>