<svg width="18" height="15" viewBox="0 0 18 15" fill="none" xmlns="http://www.w3.org/2000/svg">
<path d="M0.750212 8.2499L15.7122 8.2499L9.98297 13.7068C9.68298 13.9926 9.67135 14.4673 9.9571 14.7673C10.2425 15.0669 10.7172 15.0789 11.0176 14.7932L17.5605 8.56077C17.8436 8.27727 18 7.90078 18 7.49991C18 7.09941 17.8436 6.72254 17.5474 6.42667L11.0172 0.206996C10.8721 0.0686229 10.6861 3.14258e-07 10.5001 2.97997e-07C10.3021 2.80687e-07 10.1041 0.0779984 9.95673 0.232871C9.67098 0.532868 9.6826 1.00724 9.9826 1.29298L15.7358 6.74992L0.750212 6.74992C0.336219 6.74992 0.000221944 7.08591 0.000221908 7.49991C0.000221872 7.9139 0.336218 8.2499 0.750212 8.2499Z" fill="white"/>
</svg>
