<svg width="18" height="15" viewBox="0 0 18 15" fill="none" xmlns="http://www.w3.org/2000/svg">
<path d="M17.2498 6.7501H2.28785L8.01703 1.29317C8.31702 1.00742 8.32865 0.532676 8.0429 0.23268C7.75753 -0.0669413 7.28279 -0.0789412 6.98241 0.206805L0.439495 6.43923C0.156373 6.72273 0 7.09922 0 7.50009C0 7.90059 0.156373 8.27746 0.452619 8.57333L6.98279 14.793C7.12791 14.9314 7.31391 15 7.49991 15C7.69791 15 7.8959 14.922 8.04328 14.7671C8.32902 14.4671 8.3174 13.9928 8.0174 13.707L2.26422 8.25008H17.2498C17.6638 8.25008 17.9998 7.91409 17.9998 7.50009C17.9998 7.0861 17.6638 6.7501 17.2498 6.7501Z" fill="white"/>
</svg>
