<svg width="12" height="12" viewBox="0 0 12 12" fill="none" xmlns="http://www.w3.org/2000/svg">
<g opacity="0.4">
<path d="M11.5736 9.45636L9.59854 7.4813C9.95764 6.76309 10.197 5.92519 10.197 5.08728C10.197 2.27431 7.92273 0 5.10975 0C2.29678 0 0.0224609 2.27431 0.0224609 5.08728C0.0224609 7.90025 2.29678 10.1746 5.10975 10.1746C5.94766 10.1746 6.78557 9.93516 7.50377 9.57606L9.47884 11.5511C10.0773 12.1496 10.9751 12.1496 11.5736 11.5511C12.1123 10.9526 12.1123 10.0549 11.5736 9.45636ZM5.10975 8.97756C2.95513 8.97756 1.21947 7.24189 1.21947 5.08728C1.21947 2.93267 2.95513 1.19701 5.10975 1.19701C7.26437 1.19701 9.00003 2.93267 9.00003 5.08728C9.00003 7.24189 7.26437 8.97756 5.10975 8.97756Z" fill="#231F20"/>
</g>
</svg>
